<?xml version="1.0" standalone="no"?>
<!DOCTYPE svg PUBLIC "-//W3C//DTD SVG 20010904//EN"
 "http://www.w3.org/TR/2001/REC-SVG-20010904/DTD/svg10.dtd">
<svg version="1.0" xmlns="http://www.w3.org/2000/svg"
 width="512.000000pt" height="512.000000pt" viewBox="0 0 512.000000 512.000000"
 preserveAspectRatio="xMidYMid meet">
<metadata>
Created by potrace 1.16, written by Peter Selinger 2001-2019
</metadata>
<g transform="translate(0.000000,512.000000) scale(0.100000,-0.100000)"
fill="#000000" stroke="none">
<path d="M228 5096 c-72 -30 -128 -74 -167 -132 -66 -100 -61 94 -59 -2419 l3
-2280 27 -57 c34 -73 103 -142 176 -176 l57 -27 2295 0 2295 0 57 27 c73 34
142 103 176 176 l27 57 0 2295 0 2295 -27 57 c-34 73 -103 142 -176 176 l-57
27 -2285 2 -2285 3 -57 -24z m1419 -1097 c79 -30 153 -103 183 -184 42 -114
13 -251 -72 -332 -60 -58 -133 -86 -230 -91 -105 -5 -173 13 -244 67 -196 148
-145 461 88 542 76 26 200 25 275 -2z m1877 -854 c115 -24 228 -86 312 -170
60 -60 81 -91 122 -176 96 -198 102 -259 102 -976 l0 -573 -304 0 -305 0 -4
563 c-4 611 -5 620 -62 726 -57 104 -145 147 -284 139 -126 -8 -225 -76 -288
-198 l-28 -55 -3 -587 -3 -588 -304 0 -305 0 0 935 0 935 305 0 305 0 0 -130
c0 -71 3 -130 8 -130 4 0 22 23 41 51 72 105 207 198 341 233 72 19 266 20
354 1z m-1714 -960 l0 -935 -305 0 -305 0 0 935 0 935 305 0 305 0 0 -935z"/>
</g>
</svg>
