<?xml version="1.0" standalone="no"?>
<!DOCTYPE svg PUBLIC "-//W3C//DTD SVG 20010904//EN"
 "http://www.w3.org/TR/2001/REC-SVG-20010904/DTD/svg10.dtd">
<svg version="1.0" xmlns="http://www.w3.org/2000/svg"
 width="512.000000pt" height="512.000000pt" viewBox="0 0 512.000000 512.000000"
 preserveAspectRatio="xMidYMid meet">
<metadata>
Created by potrace 1.16, written by Peter Selinger 2001-2019
</metadata>
<g transform="translate(0.000000,512.000000) scale(0.100000,-0.100000)"
fill="#000000" stroke="none">
<path d="M228 5096 c-72 -30 -128 -74 -167 -132 -66 -100 -61 94 -59 -2419 l3
-2280 27 -57 c34 -73 103 -142 176 -176 l57 -27 2295 0 2295 0 57 27 c73 34
142 103 176 176 l27 57 0 2295 0 2295 -27 57 c-34 73 -103 142 -176 176 l-57
27 -2285 2 -2285 3 -57 -24z m2875 -1151 c22 -250 194 -488 429 -594 72 -33
178 -61 229 -61 19 0 44 -3 57 -6 l22 -6 0 -231 0 -230 -84 7 c-212 16 -419
88 -584 202 -35 24 -65 44 -67 44 -3 0 -5 -255 -5 -567 0 -337 -4 -594 -10
-633 -58 -369 -349 -671 -719 -745 -127 -26 -327 -17 -441 20 -136 44 -235 99
-335 185 -328 284 -406 753 -187 1125 55 93 197 242 287 300 141 92 321 145
497 145 53 0 103 -3 112 -6 14 -5 16 -36 16 -239 l0 -233 -37 9 c-187 43 -400
-62 -485 -240 -28 -57 -33 -80 -36 -162 -5 -118 11 -182 70 -269 148 -222 466
-256 661 -71 60 57 103 128 123 205 11 42 14 242 14 1089 l0 1037 234 0 233 0
6 -75z"/>
</g>
</svg>
