<?xml version="1.0" standalone="no"?>
<!DOCTYPE svg PUBLIC "-//W3C//DTD SVG 20010904//EN"
 "http://www.w3.org/TR/2001/REC-SVG-20010904/DTD/svg10.dtd">
<svg version="1.0" xmlns="http://www.w3.org/2000/svg"
 width="512.000000pt" height="512.000000pt" viewBox="0 0 512.000000 512.000000"
 preserveAspectRatio="xMidYMid meet">
<metadata>
Created by potrace 1.16, written by Peter Selinger 2001-2019
</metadata>
<g transform="translate(0.000000,512.000000) scale(0.100000,-0.100000)"
fill="#000000" stroke="none">
<path d="M388 4766 c-66 -18 -151 -77 -188 -130 -55 -81 -63 -115 -68 -308
l-4 -178 76 0 76 0 0 148 c0 81 5 164 11 185 13 49 63 105 114 128 38 18 131
19 2155 19 2024 0 2117 -1 2155 -19 51 -23 101 -79 114 -128 7 -26 11 -479 11
-1395 l0 -1358 -2280 0 -2280 0 0 1075 0 1075 -75 0 -75 0 2 -1287 3 -1288 31
-65 c17 -36 49 -82 70 -104 22 -21 68 -53 104 -70 l65 -31 763 -3 762 -3 0
-129 0 -129 -57 -5 c-117 -12 -191 -28 -240 -50 -112 -52 -173 -140 -181 -262
-4 -68 -3 -72 23 -92 l28 -22 1057 0 1057 0 28 22 c26 20 27 24 23 92 -8 122
-69 210 -181 262 -49 22 -123 38 -239 50 l-58 5 0 130 0 129 729 0 c423 0 749
4 779 10 116 22 203 90 256 200 l31 65 0 1600 c0 1486 -1 1603 -17 1643 -44
109 -145 199 -249 221 -78 17 -4268 14 -4331 -3z m4452 -3287 c0 -62 -6 -130
-12 -153 -16 -53 -84 -121 -134 -135 -55 -15 -4213 -15 -4268 0 -50 14 -118
82 -134 135 -6 23 -12 91 -12 153 l0 111 2280 0 2280 0 0 -111z m-1800 -579
l0 -130 -480 0 -480 0 0 130 0 130 480 0 480 0 0 -130z m344 -305 c55 -17 126
-71 126 -95 0 -6 -345 -10 -950 -10 -522 0 -950 3 -950 6 0 3 9 18 20 34 26
36 93 67 172 79 35 5 384 8 793 7 685 -2 734 -3 789 -21z"/>
<path d="M2280 1385 l0 -75 280 0 280 0 0 75 0 75 -280 0 -280 0 0 -75z"/>
</g>
</svg>
