<?xml version="1.0" standalone="no"?>
<!DOCTYPE svg PUBLIC "-//W3C//DTD SVG 20010904//EN"
 "http://www.w3.org/TR/2001/REC-SVG-20010904/DTD/svg10.dtd">
<svg version="1.0" xmlns="http://www.w3.org/2000/svg"
 width="512.000000pt" height="511.000000pt" viewBox="0 0 512.000000 511.000000"
 preserveAspectRatio="xMidYMid meet">
<metadata>
Created by potrace 1.16, written by Peter Selinger 2001-2019
</metadata>
<g transform="translate(0.000000,511.000000) scale(0.100000,-0.100000)"
fill="#000000" stroke="none">
<path d="M2322 4309 c-658 -59 -1294 -389 -1719 -894 -180 -214 -363 -528
-457 -787 -44 -118 -99 -337 -121 -478 -26 -159 -31 -520 -11 -694 24 -204 81
-443 137 -576 27 -63 75 -94 145 -94 57 0 90 17 127 65 34 46 32 94 -7 219
-41 127 -81 321 -94 448 l-8 82 249 0 c238 0 251 1 288 22 43 24 79 85 79 133
0 48 -36 109 -79 133 -37 21 -50 22 -290 22 l-251 0 4 23 c3 12 8 51 11 87 17
178 82 421 161 608 25 59 47 108 49 110 1 1 93 -50 204 -113 110 -64 217 -121
237 -127 106 -29 213 72 190 179 -15 67 -39 87 -247 207 -112 65 -208 122
-213 127 -16 14 129 195 269 334 118 118 311 278 326 269 3 -1 59 -96 125
-210 135 -234 154 -254 239 -254 97 0 159 65 152 160 -3 49 -16 77 -122 259
-111 191 -117 205 -100 217 38 28 278 115 407 148 117 30 322 66 378 66 18 0
19 -12 22 -252 3 -240 4 -255 25 -288 30 -49 71 -70 133 -70 62 0 103 21 133
70 21 33 22 48 25 288 3 239 4 252 22 252 56 0 262 -36 378 -66 129 -33 369
-120 407 -148 17 -12 11 -26 -100 -217 -106 -182 -119 -210 -122 -259 -7 -95
55 -160 152 -160 85 0 104 20 239 254 66 114 122 209 125 210 15 9 208 -151
326 -269 140 -139 285 -320 269 -334 -5 -5 -101 -62 -213 -127 -211 -121 -234
-141 -247 -211 -20 -107 85 -204 190 -175 20 6 127 63 237 127 111 63 203 114
204 113 12 -13 99 -234 123 -313 49 -158 68 -255 97 -482 l4 -33 -251 0 c-239
0 -252 -1 -289 -22 -43 -24 -79 -85 -79 -133 0 -48 36 -109 79 -133 37 -21 50
-22 288 -22 l249 0 -8 -82 c-13 -126 -45 -283 -83 -414 -40 -137 -41 -145 -16
-200 44 -98 182 -115 257 -32 46 49 123 351 150 584 20 174 15 535 -11 694
-22 141 -77 360 -121 478 -128 350 -372 726 -631 973 -549 522 -1270 775
-2021 708z"/>
<path d="M3460 2862 c-34 -16 -67 -50 -373 -379 -175 -189 -322 -343 -326
-343 -4 0 -34 9 -67 20 -78 28 -198 28 -275 1 -181 -62 -291 -216 -291 -406 0
-242 183 -425 425 -426 189 -1 349 115 410 295 18 53 23 181 8 231 -8 29 1 40
262 320 404 435 424 458 437 504 15 56 -1 108 -45 151 -30 29 -42 34 -92 37
-32 1 -65 -1 -73 -5z m-850 -1008 c78 -47 78 -151 0 -198 -75 -44 -170 12
-170 99 0 87 95 143 170 99z"/>
</g>
</svg>
